REM DIRINDEX 1\2,1\3
REM DIRNAME folder01,folder02,folder03
TITLE ""
FILE "2421-2440.mp3" MP3
  TRACK 01 AUDIO
    TITLE "0:"
    INDEX 01 00:00:00
  TRACK 02 AUDIO
    TITLE "2:cjc039_3841"
    INDEX 01 00:00:27
  TRACK 03 AUDIO
    TITLE "0:"
    INDEX 01 00:01:26
  TRACK 04 AUDIO
    TITLE "3:cjc039_3842"
    INDEX 01 00:02:08
  TRACK 05 AUDIO
    TITLE "0:"
    INDEX 01 00:05:03
  TRACK 06 AUDIO
    TITLE "2:cjc039_3843"
    INDEX 01 00:06:53
  TRACK 07 AUDIO
    TITLE "0:"
    INDEX 01 00:07:58
  TRACK 08 AUDIO
    TITLE "3:cjc039_3844"
    INDEX 01 00:08:40
  TRACK 09 AUDIO
    TITLE "0:"
    INDEX 01 00:11:44
  TRACK 10 AUDIO
    TITLE "2:cjc039_3845"
    INDEX 01 00:13:20
  TRACK 11 AUDIO
    TITLE "0:"
    INDEX 01 00:14:43
  TRACK 12 AUDIO
    TITLE "3:cjc039_3846"
    INDEX 01 00:15:21
  TRACK 13 AUDIO
    TITLE "0:"
    INDEX 01 00:18:50
  TRACK 14 AUDIO
    TITLE "2:cjc039_3847"
    INDEX 01 00:20:26
  TRACK 15 AUDIO
    TITLE "0:"
    INDEX 01 00:21:41
  TRACK 16 AUDIO
    TITLE "3:cjc039_3848"
    INDEX 01 00:22:13
  TRACK 17 AUDIO
    TITLE "0:"
    INDEX 01 00:27:20
  TRACK 18 AUDIO
    TITLE "2:cjc039_3849"
    INDEX 01 00:28:62
  TRACK 19 AUDIO
    TITLE "0:"
    INDEX 01 00:30:30
  TRACK 20 AUDIO
    TITLE "3:cjc039_3850"
    INDEX 01 00:31:06
  TRACK 21 AUDIO
    TITLE "0:"
    INDEX 01 00:33:66
  TRACK 22 AUDIO
    TITLE "2:cjc039_3851"
    INDEX 01 00:35:41
  TRACK 23 AUDIO
    TITLE "0:"
    INDEX 01 00:37:01
  TRACK 24 AUDIO
    TITLE "3:cjc039_3852"
    INDEX 01 00:37:56
  TRACK 25 AUDIO
    TITLE "0:"
    INDEX 01 00:41:20
  TRACK 26 AUDIO
    TITLE "2:cjc039_3853"
    INDEX 01 00:42:68
  TRACK 27 AUDIO
    TITLE "0:"
    INDEX 01 00:44:26
  TRACK 28 AUDIO
    TITLE "3:cjc039_3854"
    INDEX 01 00:45:00
  TRACK 29 AUDIO
    TITLE "0:"
    INDEX 01 00:47:48
  TRACK 30 AUDIO
    TITLE "2:cjc039_3855"
    INDEX 01 00:49:25
  TRACK 31 AUDIO
    TITLE "0:"
    INDEX 01 00:50:54
  TRACK 32 AUDIO
    TITLE "3:cjc039_3856"
    INDEX 01 00:51:32
  TRACK 33 AUDIO
    TITLE "0:"
    INDEX 01 00:55:55
  TRACK 34 AUDIO
    TITLE "2:cjc039_3857"
    INDEX 01 00:57:29
  TRACK 35 AUDIO
    TITLE "0:"
    INDEX 01 00:58:48
  TRACK 36 AUDIO
    TITLE "3:cjc039_3858"
    INDEX 01 00:59:22
  TRACK 37 AUDIO
    TITLE "0:"
    INDEX 01 01:02:34
  TRACK 38 AUDIO
    TITLE "2:cjc039_3859"
    INDEX 01 01:04:05
  TRACK 39 AUDIO
    TITLE "0:"
    INDEX 01 01:05:58
  TRACK 40 AUDIO
    TITLE "3:cjc039_3860"
    INDEX 01 01:06:34
  TRACK 41 AUDIO
    TITLE "0:"
    INDEX 01 01:10:10
  TRACK 42 AUDIO
    TITLE "2:cjc039_3861"
    INDEX 01 01:11:58
  TRACK 43 AUDIO
    TITLE "0:"
    INDEX 01 01:12:71
  TRACK 44 AUDIO
    TITLE "3:cjc039_3862"
    INDEX 01 01:13:49
  TRACK 45 AUDIO
    TITLE "0:"
    INDEX 01 01:17:00
  TRACK 46 AUDIO
    TITLE "2:cjc039_3863"
    INDEX 01 01:18:45
  TRACK 47 AUDIO
    TITLE "0:"
    INDEX 01 01:19:66
  TRACK 48 AUDIO
    TITLE "3:cjc039_3864"
    INDEX 01 01:20:44
  TRACK 49 AUDIO
    TITLE "0:"
    INDEX 01 01:23:46
  TRACK 50 AUDIO
    TITLE "2:cjc039_3865"
    INDEX 01 01:25:21
  TRACK 51 AUDIO
    TITLE "0:"
    INDEX 01 01:26:21
  TRACK 52 AUDIO
    TITLE "3:cjc039_3866"
    INDEX 01 01:26:74
  TRACK 53 AUDIO
    TITLE "0:"
    INDEX 01 01:30:20
  TRACK 54 AUDIO
    TITLE "2:cjc039_3867"
    INDEX 01 01:31:67
  TRACK 55 AUDIO
    TITLE "0:"
    INDEX 01 01:33:38
  TRACK 56 AUDIO
    TITLE "3:cjc039_3868"
    INDEX 01 01:34:16
  TRACK 57 AUDIO
    TITLE "0:"
    INDEX 01 01:38:28
  TRACK 58 AUDIO
    TITLE "2:cjc039_3869"
    INDEX 01 01:40:01
  TRACK 59 AUDIO
    TITLE "0:"
    INDEX 01 01:41:32
  TRACK 60 AUDIO
    TITLE "3:cjc039_3870"
    INDEX 01 01:42:06
  TRACK 61 AUDIO
    TITLE "0:"
    INDEX 01 01:45:26
  TRACK 62 AUDIO
    TITLE "2:cjc039_3871"
    INDEX 01 01:46:74
  TRACK 63 AUDIO
    TITLE "0:"
    INDEX 01 01:48:16
  TRACK 64 AUDIO
    TITLE "3:cjc039_3872"
    INDEX 01 01:48:65
  TRACK 65 AUDIO
    TITLE "0:"
    INDEX 01 01:52:38
  TRACK 66 AUDIO
    TITLE "2:cjc039_3873"
    INDEX 01 01:54:17
  TRACK 67 AUDIO
    TITLE "0:"
    INDEX 01 01:55:20
  TRACK 68 AUDIO
    TITLE "3:cjc039_3874"
    INDEX 01 01:55:69
  TRACK 69 AUDIO
    TITLE "0:"
    INDEX 01 01:58:62
  TRACK 70 AUDIO
    TITLE "2:cjc039_3875"
    INDEX 01 02:00:37
  TRACK 71 AUDIO
    TITLE "0:"
    INDEX 01 02:01:56
  TRACK 72 AUDIO
    TITLE "3:cjc039_3876"
    INDEX 01 02:02:36
  TRACK 73 AUDIO
    TITLE "0:"
    INDEX 01 02:05:56
  TRACK 74 AUDIO
    TITLE "2:cjc039_3877"
    INDEX 01 02:07:31
  TRACK 75 AUDIO
    TITLE "0:"
    INDEX 01 02:08:41
  TRACK 76 AUDIO
    TITLE "3:cjc039_3878"
    INDEX 01 02:09:17
  TRACK 77 AUDIO
    TITLE "0:"
    INDEX 01 02:12:33
  TRACK 78 AUDIO
    TITLE "2:cjc039_3879"
    INDEX 01 02:14:10
  TRACK 79 AUDIO
    TITLE "0:"
    INDEX 01 02:15:11
  TRACK 80 AUDIO
    TITLE "3:cjc039_3880"
    INDEX 01 02:15:66
  TRACK 81 AUDIO
    TITLE "0:"
    INDEX 01 02:19:25
